<svg width="79" height="79" viewBox="0 0 79 79" fill="none" xmlns="http://www.w3.org/2000/svg">
<path fill-rule="evenodd" clip-rule="evenodd" d="M53.1133 67.3287C54.0485 68.3207 54.0485 69.9293 53.1133 70.9213C52.1779 71.9132 50.6614 71.9132 49.7262 70.9213L42.7434 63.515C41.8082 62.5231 41.8082 60.9144 42.7434 59.9225L49.7262 52.5162C50.6614 51.524 52.1779 51.524 53.1131 52.5162C54.0485 53.5082 54.0485 55.1168 53.1133 56.1088L47.8241 61.7188L53.1133 67.3287ZM59.6012 56.1088C58.6658 55.1168 58.6658 53.5084 59.6012 52.5162C60.5364 51.5243 62.0529 51.5243 62.9883 52.5162L69.971 59.9225C70.9061 60.9147 70.9061 62.5231 69.971 63.515L62.9883 70.9213C62.0529 71.9135 60.5364 71.9135 59.6012 70.9213C58.6658 69.9293 58.6658 68.3207 59.6012 67.3287L64.8903 61.7188L59.6012 56.1088Z" fill="white"/>
<path fill-rule="evenodd" clip-rule="evenodd" d="M17.2812 14.8125C17.2812 10.7221 20.5972 7.40625 24.6875 7.40625H54.3125C58.403 7.40625 61.7188 10.7222 61.7188 14.8125V44.4375C61.7188 45.801 60.6135 46.9062 59.25 46.9062H48.9514C48.2966 46.9062 47.6688 47.1665 47.2057 47.6293L36.3558 58.4793C35.6046 59.2307 35.4182 60.3785 35.8934 61.3289L39.2393 68.021C39.622 68.7863 39.5812 69.695 39.1314 70.4228C38.6814 71.1506 37.8869 71.5938 37.0312 71.5938H24.6875C20.5972 71.5938 17.2812 68.278 17.2812 64.1875V14.8125ZM32.0938 12.3438C30.7303 12.3438 29.625 13.4491 29.625 14.8125C29.625 16.1759 30.7303 17.2812 32.0938 17.2812H46.9062C48.2697 17.2812 49.375 16.1759 49.375 14.8125C49.375 13.4491 48.2697 12.3438 46.9062 12.3438H32.0938Z" fill="url(#paint0_linear_177_184)"/>
<defs>
<linearGradient id="paint0_linear_177_184" x1="49.1514" y1="21.8722" x2="18.3463" y2="49.3595" gradientUnits="userSpaceOnUse">
<stop stop-color="#9DE8EE"/>
<stop offset="0.0001" stop-color="#9DE8EE"/>
<stop offset="0.490049" stop-color="#FA7C0B"/>
<stop offset="1" stop-color="#9F8CED"/>
</linearGradient>
</defs>
</svg>
