<svg width="78" height="78" viewBox="0 0 78 78" fill="none" xmlns="http://www.w3.org/2000/svg">
<g clip-path="url(#clip0_177_177)">
<mask id="mask0_177_177" style="mask-type:luminance" maskUnits="userSpaceOnUse" x="0" y="0" width="78" height="78">
<path d="M78 0H0V78H78V0Z" fill="white"/>
</mask>
<g mask="url(#mask0_177_177)">
<path fill-rule="evenodd" clip-rule="evenodd" d="M4.875 34.125C4.875 27.3941 4.875 32.9062 4.875 29.25H73.125C73.125 35.3438 73.125 27.3941 73.125 34.125V36.5625C73.125 40.6012 69.8512 43.875 65.8125 43.875H52.7887C50.8492 43.875 48.9891 44.6455 47.6178 46.0168L40.8176 52.817C38.592 55.0427 38.0404 58.4427 39.448 61.258L41.1801 64.7224C41.5579 65.4781 41.5177 66.3753 41.0733 67.0939C40.6292 67.8125 39.8448 68.25 39 68.25H17.0625C10.3315 68.25 4.875 62.7934 4.875 56.0625V34.125Z" fill="url(#paint0_linear_177_177)"/>
<path fill-rule="evenodd" clip-rule="evenodd" d="M54.8785 64.039C55.8018 65.0184 55.8018 66.6066 54.8785 67.586C53.9549 68.5654 52.4576 68.5654 51.5342 67.586L44.6398 60.2735C43.7164 59.2941 43.7164 57.7059 44.6398 56.7265L51.5342 49.414C52.4576 48.4344 53.9549 48.4344 54.8782 49.414C55.8018 50.3934 55.8018 51.9816 54.8785 52.961L49.6561 58.5L54.8785 64.039ZM61.2842 52.961C60.3607 51.9816 60.3607 50.3936 61.2842 49.414C62.2076 48.4346 63.7049 48.4346 64.6285 49.414L71.5227 56.7265C72.446 57.7061 72.446 59.2941 71.5227 60.2735L64.6285 67.586C63.7049 68.5657 62.2076 68.5657 61.2842 67.586C60.3607 66.6066 60.3607 65.0184 61.2842 64.039L66.5063 58.5L61.2842 52.961Z" fill="white"/>
<path fill-rule="evenodd" clip-rule="evenodd" d="M17.0625 9.75C10.3315 9.75 4.875 15.2065 4.875 21.9375V24.375H73.125V21.9375C73.125 15.2065 67.6684 9.75 60.9375 9.75H17.0625ZM14.625 19.5C15.9712 19.5 17.0625 18.4087 17.0625 17.0625C17.0625 15.7163 15.9712 14.625 14.625 14.625C13.2788 14.625 12.1875 15.7163 12.1875 17.0625C12.1875 18.4087 13.2788 19.5 14.625 19.5ZM21.9375 19.5C23.2837 19.5 24.375 18.4087 24.375 17.0625C24.375 15.7163 23.2837 14.625 21.9375 14.625C20.5913 14.625 19.5 15.7163 19.5 17.0625C19.5 18.4087 20.5913 19.5 21.9375 19.5ZM31.6875 17.0625C31.6875 18.4087 30.5962 19.5 29.25 19.5C27.9038 19.5 26.8125 18.4087 26.8125 17.0625C26.8125 15.7163 27.9038 14.625 29.25 14.625C30.5962 14.625 31.6875 15.7163 31.6875 17.0625Z" fill="url(#paint1_linear_177_177)"/>
</g>
</g>
<defs>
<linearGradient id="paint0_linear_177_177" x1="53.8233" y1="38.0394" x2="39.863" y2="69.5274" gradientUnits="userSpaceOnUse">
<stop stop-color="#9DE8EE"/>
<stop offset="0.0001" stop-color="#9DE8EE"/>
<stop offset="0.490049" stop-color="#FA7C0B"/>
<stop offset="1" stop-color="#9F8CED"/>
</linearGradient>
<linearGradient id="paint1_linear_177_177" x1="53.8233" y1="13.046" x2="51.5374" y2="26.795" gradientUnits="userSpaceOnUse">
<stop stop-color="#9DE8EE"/>
<stop offset="0.0001" stop-color="#9DE8EE"/>
<stop offset="0.490049" stop-color="#FA7C0B"/>
<stop offset="1" stop-color="#9F8CED"/>
</linearGradient>
<clipPath id="clip0_177_177">
<rect width="78" height="78" fill="white"/>
</clipPath>
</defs>
</svg>
