<svg width="78" height="78" viewBox="0 0 78 78" fill="none" xmlns="http://www.w3.org/2000/svg">
<path fill-rule="evenodd" clip-rule="evenodd" d="M17.0625 9.75C13.8302 9.75 10.7302 11.034 8.44464 13.3196C6.15904 15.6052 4.875 18.7052 4.875 21.9375V56.0625C4.875 59.2948 6.15904 62.3948 8.44464 64.6804C10.7302 66.966 13.8302 68.25 17.0625 68.25H39C39.6465 68.25 40.2665 67.9932 40.7236 67.5361C41.1807 67.079 41.4375 66.459 41.4375 65.8125C41.4375 65.166 41.1807 64.546 40.7236 64.0889C40.2665 63.6318 39.6465 63.375 39 63.375H17.0625C15.1231 63.375 13.2631 62.6046 11.8918 61.2332C10.5204 59.8619 9.75 58.0019 9.75 56.0625V29.25H68.25V41.4375C68.25 42.084 68.5068 42.704 68.9639 43.1611C69.421 43.6182 70.041 43.875 70.6875 43.875C71.334 43.875 71.954 43.6182 72.4111 43.1611C72.8682 42.704 73.125 42.084 73.125 41.4375V21.9375C73.125 18.7052 71.841 15.6052 69.5554 13.3196C67.2698 11.034 64.1698 9.75 60.9375 9.75H17.0625ZM17.0625 21.9375C17.709 21.9375 18.329 21.6807 18.7861 21.2236C19.2432 20.7665 19.5 20.1465 19.5 19.5C19.5 18.8535 19.2432 18.2335 18.7861 17.7764C18.329 17.3193 17.709 17.0625 17.0625 17.0625C16.416 17.0625 15.796 17.3193 15.3389 17.7764C14.8818 18.2335 14.625 18.8535 14.625 19.5C14.625 20.1465 14.8818 20.7665 15.3389 21.2236C15.796 21.6807 16.416 21.9375 17.0625 21.9375ZM24.375 21.9375C25.0215 21.9375 25.6415 21.6807 26.0986 21.2236C26.5557 20.7665 26.8125 20.1465 26.8125 19.5C26.8125 18.8535 26.5557 18.2335 26.0986 17.7764C25.6415 17.3193 25.0215 17.0625 24.375 17.0625C23.7285 17.0625 23.1085 17.3193 22.6514 17.7764C22.1943 18.2335 21.9375 18.8535 21.9375 19.5C21.9375 20.1465 22.1943 20.7665 22.6514 21.2236C23.1085 21.6807 23.7285 21.9375 24.375 21.9375V21.9375ZM34.125 19.5C34.125 20.1465 33.8682 20.7665 33.4111 21.2236C32.954 21.6807 32.334 21.9375 31.6875 21.9375C31.041 21.9375 30.421 21.6807 29.9639 21.2236C29.5068 20.7665 29.25 20.1465 29.25 19.5C29.25 18.8535 29.5068 18.2335 29.9639 17.7764C30.421 17.3193 31.041 17.0625 31.6875 17.0625C32.334 17.0625 32.954 17.3193 33.4111 17.7764C33.8682 18.2335 34.125 18.8535 34.125 19.5Z" fill="url(#paint0_linear_177_187)"/>
<path fill-rule="evenodd" clip-rule="evenodd" d="M60.9368 48.75C60.2904 48.75 59.6704 49.0068 59.2133 49.4639C58.7562 49.921 58.4993 50.541 58.4993 51.1875C58.4993 51.834 58.7562 52.454 59.2133 52.9111C59.6704 53.3682 60.2904 53.625 60.9368 53.625H65.6168L60.0959 60.5231L54.3946 58.6243C53.9652 58.4815 53.5045 58.461 53.0641 58.5652C52.6236 58.6693 52.2209 58.8941 51.901 59.2142L47.026 64.0892C46.582 64.5489 46.3363 65.1646 46.3419 65.8037C46.3474 66.4428 46.6038 67.0542 47.0557 67.5061C47.5077 67.9581 48.119 68.2144 48.7581 68.22C49.3972 68.2255 50.0129 67.9798 50.4727 67.5358L54.2825 63.726L60.1666 65.6882C60.6396 65.8458 61.1495 65.8546 61.6276 65.7134C62.1058 65.5722 62.5291 65.2877 62.8405 64.8984L68.2493 58.0612V60.9375C68.2493 61.584 68.5062 62.204 68.9633 62.6611C69.4204 63.1182 70.0404 63.375 70.6868 63.375C71.3333 63.375 71.9533 63.1182 72.4104 62.6611C72.8675 62.204 73.1243 61.584 73.1243 60.9375V51.1875C73.1243 50.541 72.8675 49.921 72.4104 49.4639C71.9533 49.0068 71.3333 48.75 70.6868 48.75H60.9368Z" fill="white"/>
<defs>
<linearGradient id="paint0_linear_177_187" x1="53.8233" y1="22.9341" x2="27.7637" y2="62.1197" gradientUnits="userSpaceOnUse">
<stop stop-color="#9DE8EE"/>
<stop offset="0.0001" stop-color="#9DE8EE"/>
<stop offset="0.490049" stop-color="#FA7C0B"/>
<stop offset="1" stop-color="#9F8CED"/>
</linearGradient>
</defs>
</svg>
